
PLOT

A female warrior who was raised as a man joins a young samurai's quest to recover 48 of his body parts
from 48 demons and to avenge her parents death.
 
http://www.imdb.com/title/tt0780503/

Encoded By .......: BigPerm1828
Runtime ..........: 2h 18mn
File Size ........: 797 MB
Resolution .......: 672 x 368
IMDb URL .........: 
Genre ............: Action | Fantasy | Horror
Language .........: Japanese
Subtitles ........: Hardcoded English
Video
ID : 0
Format : MPEG-4 Visual
Format profile : Advanced Simple@L5
Format settings, BVOP : Yes
Format settings, QPel : No
Format settings, GMC : No warppoints
Format settings, Matrix : Default (H.263)
Muxing mode : Packed bitstream
Codec ID : XVID
Codec ID/Hint : XviD
Duration : 2h 18mn
Bit rate : 570 Kbps
Width : 672 pixels
Height : 368 pixels
Display aspect ratio : 16:9
Frame rate : 23.976 fps
Color space : YUV
Chroma subsampling : 4:2:0
Bit depth : 8 bits
Scan type : Progressive
Compression mode : Lossy
Bits/(Pixel*Frame) : 0.096
Stream size : 565 MiB (71%)
Writing library : XviD 1.2.1 (UTC 2008-12-04)
Audio
ID : 1
Format : AC-3
Format/Info : Audio Coding 3
Mode extension : CM (complete main)
Codec ID : 2000
Duration : 2h 18mn
Bit rate mode : Constant
Bit rate : 224 Kbps
Channel(s) : 2 channels
Channel positions : Front: L R
Sampling rate : 48.0 KHz
Bit depth : 16 bits
Compression mode : Lossy
Stream size : 222 MiB (28%)
Alignment : Split accross interleaves
Interleave, duration : 42 ms (1.00 video frame)
Interleave, preload duration : 500 ms
